<svg version="1.1" xmlns="http://www.w3.org/2000/svg" xmlns:xlink="http://www.w3.org/1999/xlink" role="img" width="338" height="90" viewbox="0 0 338 90"><title>scikit-learn</title><desc>Generated by logo.svg, https://github.com/bubkoo/logo.svg</desc><path fill="#2b68a7" d="M13.16 70.99Q8.36 70.99 5.48 69.07Q2.60 67.15 2.60 63.76Q2.60 62.03 3.27 61.14Q3.94 60.24 4.90 59.89Q5.86 59.54 6.63 59.54Q6.63 61.78 7.34 63.70Q8.04 65.62 9.64 66.77Q11.24 67.92 13.93 67.92Q17.13 67.92 18.98 66.45Q20.84 64.98 20.84 61.97Q20.84 59.73 19.37 58.13Q17.90 56.53 14.38 54.93Q10.86 53.26 8.74 51.06Q6.63 48.85 6.63 45.01Q6.63 40.91 9.96 38.19Q13.29 35.47 18.98 35.47Q22.50 35.47 24.68 36.37Q26.86 37.26 27.91 38.67Q28.97 40.08 28.97 41.55Q28.97 43.60 27.66 44.56Q26.34 45.52 24.17 45.52Q24.17 43.86 23.62 42.19Q23.08 40.53 21.83 39.47Q20.58 38.42 18.41 38.42Q15.53 38.42 13.86 39.98Q12.20 41.55 12.20 43.92Q12.20 46.10 13.77 47.54Q15.34 48.98 18.73 50.51Q22.25 52.11 24.33 54.42Q26.41 56.72 26.41 60.43Q26.41 65.10 22.86 68.05Q19.30 70.99 13.16 70.99ZM45.93 70.99Q42.47 70.99 39.66 69.52Q36.84 68.05 35.14 65.14Q33.45 62.22 33.45 57.74Q33.45 54.22 34.66 50.32Q35.88 46.42 38.31 43.02Q40.74 39.63 44.30 37.52Q47.85 35.41 52.52 35.41Q57.32 35.41 59.59 37.30Q61.86 39.18 61.86 41.55Q61.86 43.34 60.39 44.69Q58.92 46.03 56.17 46.03Q56.17 42.96 54.98 40.72Q53.80 38.48 51.24 38.48Q49.19 38.48 47.46 39.86Q45.74 41.23 44.36 43.44Q42.98 45.65 42.06 48.30Q41.13 50.96 40.62 53.58Q40.10 56.21 40.10 58.26Q40.10 62.42 41.90 64.69Q43.69 66.96 47.14 66.96Q50.54 66.96 52.78 65.49Q55.02 64.02 56.36 62.35Q57 62.80 57 63.95Q57 65.36 55.82 66.99Q54.63 68.62 52.20 69.81Q49.77 70.99 45.93 70.99ZM76.20 29.65Q74.60 29.65 73.61 28.78Q72.62 27.92 72.62 26.13Q72.62 24.14 73.67 22.90Q74.73 21.65 76.46 21.65Q77.99 21.65 79.02 22.51Q80.04 23.38 80.04 25.17Q80.04 27.66 78.82 28.66Q77.61 29.65 76.20 29.65M71.78 70.99Q69.22 70.99 67.85 69.20Q66.47 67.41 66.47 64.91Q66.47 63.57 66.73 61.71Q66.98 59.86 67.30 58Q67.62 56.14 67.88 54.86L70.38 43.09Q70.57 42.13 70.57 41.42Q70.57 39.70 69.51 39.22Q68.46 38.74 66.66 38.74L65.83 38.74L66.41 36.05L77.86 36.05L73.51 56.59Q73.38 57.30 73.13 58.64Q72.87 59.98 72.71 61.39Q72.55 62.80 72.55 63.70Q72.55 66.96 74.66 66.96Q75.69 66.96 76.87 66.48Q78.06 66 79.27 65.30L80.42 67.15Q79.02 68.43 76.58 69.71Q74.15 70.99 71.78 70.99ZM114.28 70.80Q110.76 70.74 108.58 70.16Q106.41 69.58 105.06 68.18Q103.72 66.77 102.70 64.21L98.54 53.97L92.71 57.68L90.09 70.35L84.14 70.35L92.46 30.80Q92.71 29.52 92.87 28.62Q93.03 27.73 93.03 27.41Q93.03 25.49 91.72 24.94Q90.41 24.40 88.55 24.40L88.04 24.40L88.62 21.71L100.39 21.71L97.90 33.49Q97.51 35.22 96.90 38.03Q96.30 40.85 95.56 44.05Q94.82 47.25 94.12 50.06Q93.42 52.88 92.90 54.54L103.08 45.71Q105.64 43.47 106.70 42.19Q107.75 40.91 107.75 40.02Q107.75 39.18 107.14 38.96Q106.54 38.74 104.94 38.74L105.51 36.05L119.66 36.05L119.08 38.74Q116.90 38.74 114.41 40.30Q111.91 41.87 108.78 44.69L102.95 50.06L108.78 62.74Q109.86 65.10 111.34 66.61Q112.81 68.11 115.30 68.11L114.73 70.80L114.28 70.80ZM132.07 29.65Q130.47 29.65 129.48 28.78Q128.49 27.92 128.49 26.13Q128.49 24.14 129.54 22.90Q130.60 21.65 132.33 21.65Q133.86 21.65 134.89 22.51Q135.91 23.38 135.91 25.17Q135.91 27.66 134.70 28.66Q133.48 29.65 132.07 29.65M127.66 70.99Q125.10 70.99 123.72 69.20Q122.34 67.41 122.34 64.91Q122.34 63.57 122.60 61.71Q122.86 59.86 123.18 58Q123.50 56.14 123.75 54.86L126.25 43.09Q126.44 42.13 126.44 41.42Q126.44 39.70 125.38 39.22Q124.33 38.74 122.54 38.74L121.70 38.74L122.28 36.05L133.74 36.05L129.38 56.59Q129.26 57.30 129.00 58.64Q128.74 59.98 128.58 61.39Q128.42 62.80 128.42 63.70Q128.42 66.96 130.54 66.96Q131.56 66.96 132.74 66.48Q133.93 66 135.14 65.30L136.30 67.15Q134.89 68.43 132.46 69.71Q130.02 70.99 127.66 70.99ZM148.90 70.99Q141.93 70.99 141.93 63.50Q141.93 62.35 142.12 60.85Q142.31 59.34 142.57 58.13L146.47 39.70L141.61 39.70L142.18 37.14Q144.94 37.14 147.50 35.12Q150.06 33.10 151.98 28.18L154.92 28.18L153.26 36.05L161 36.05L160.23 39.70L152.49 39.70L148.58 57.94Q148.26 59.54 148.04 60.98Q147.82 62.42 147.82 63.44Q147.82 65.30 148.71 66.13Q149.61 66.96 151.21 66.96Q152.55 66.96 153.96 66.54Q155.37 66.13 156.46 65.55L157.54 67.92Q155.62 69.26 153.45 70.13Q151.27 70.99 148.90 70.99ZM161.64 55.31L162.66 50.51L179.30 50.51L178.28 55.31L161.64 55.31ZM190.57 70.99Q188.01 70.99 186.63 69.20Q185.26 67.41 185.26 64.91Q185.26 63.57 185.51 61.71Q185.77 59.86 186.09 58Q186.41 56.14 186.66 54.86L191.91 30.29Q192.10 29.39 192.20 28.56Q192.30 27.73 192.30 27.41Q192.30 25.49 190.98 24.94Q189.67 24.40 187.82 24.40L187.05 24.40L187.62 21.71L199.72 21.71L192.30 56.59Q192.10 57.30 191.88 58.64Q191.66 59.98 191.46 61.39Q191.27 62.80 191.27 63.70Q191.27 66.96 193.38 66.96Q194.41 66.96 195.59 66.48Q196.78 66 197.99 65.30L199.14 67.15Q197.74 68.43 195.37 69.71Q193 70.99 190.57 70.99ZM215.27 70.99Q211.82 70.99 209 69.52Q206.18 68.05 204.49 65.14Q202.79 62.22 202.79 57.74Q202.79 54.22 204.01 50.32Q205.22 46.42 207.66 43.02Q210.09 39.63 213.64 37.52Q217.19 35.41 221.86 35.41Q225.90 35.41 228.14 37.36Q230.38 39.31 230.38 42.77Q230.38 46.16 227.98 49.07Q225.58 51.98 221.38 53.78Q217.19 55.57 211.82 55.57L209.58 55.57Q209.51 56.27 209.48 56.94Q209.45 57.62 209.45 58.26Q209.45 62.42 211.24 64.69Q213.03 66.96 216.49 66.96Q219.56 66.96 221.96 65.49Q224.36 64.02 225.70 62.35Q226.34 62.80 226.34 63.95Q226.34 65.36 225.16 66.99Q223.98 68.62 221.54 69.81Q219.11 70.99 215.27 70.99M210.15 52.62L210.79 52.62Q214.50 52.62 217.45 51.38Q220.39 50.13 222.09 47.92Q223.78 45.71 223.78 42.77Q223.78 38.48 220.07 38.48Q218.22 38.48 216.65 39.73Q215.08 40.98 213.80 43.06Q212.52 45.14 211.59 47.63Q210.66 50.13 210.15 52.62ZM242.60 70.99Q239.78 70.99 237.93 69.46Q236.07 67.92 235.21 65.26Q234.34 62.61 234.34 59.28Q234.34 56.27 235.14 52.98Q235.94 49.68 237.54 46.58Q239.14 43.47 241.45 40.94Q243.75 38.42 246.76 36.91Q249.77 35.41 253.42 35.41Q255.72 35.41 257.67 36.05Q259.62 36.69 260.90 37.71L263.72 36.11L265.77 36.11L261.42 56.59Q261.29 57.30 261.03 58.64Q260.78 59.98 260.62 61.39Q260.46 62.80 260.46 63.70Q260.46 66.96 262.57 66.96Q263.59 66.96 264.78 66.48Q265.96 66 267.18 65.30L268.33 67.15Q267.43 67.98 265.90 68.88Q264.36 69.78 262.63 70.38Q260.90 70.99 259.30 70.99Q257 70.99 255.66 69.58Q254.31 68.18 254.31 65.68Q254.31 64.40 254.47 63.34Q254.63 62.29 254.95 60.69L254.57 60.69Q252.33 65.62 249.35 68.30Q246.38 70.99 242.60 70.99M244.90 66.96Q246.57 66.96 248.33 65.68Q250.09 64.40 251.66 62.22Q253.22 60.05 254.44 57.36Q255.66 54.67 256.23 51.92L258.60 40.59Q257.90 39.44 256.55 38.86Q255.21 38.29 253.74 38.29Q251.18 38.29 249.13 39.73Q247.08 41.17 245.54 43.54Q244.01 45.90 242.95 48.72Q241.90 51.54 241.38 54.38Q240.87 57.23 240.87 59.54Q240.87 63.50 242.02 65.23Q243.18 66.96 244.90 66.96ZM271.46 70.35L276.84 44.62Q277.03 43.73 277.13 42.90Q277.22 42.06 277.22 41.74Q277.22 39.82 275.56 39.28Q273.90 38.74 272.10 38.74L271.59 38.74L272.17 36.05L283.50 36.05L282.15 45.26L282.79 45.26Q284.01 42.64 285.42 40.40Q286.82 38.16 288.81 36.78Q290.79 35.41 293.67 35.41Q296.36 35.41 297.64 36.66Q298.92 37.90 298.92 39.82Q298.92 42.06 297.67 43.38Q296.42 44.69 293.61 44.69Q293.61 42.38 293.10 41.01Q292.58 39.63 291.05 39.63Q289.38 39.63 287.69 41.36Q285.99 43.09 284.49 45.94Q282.98 48.78 281.77 52.14Q280.55 55.50 279.85 58.70L277.42 70.35L271.46 70.35ZM328.04 70.99Q325.22 70.99 323.72 69.20Q322.22 67.41 322.22 64.59Q322.22 61.65 323.43 55.95L324.52 50.96Q324.71 50.13 325.03 48.75Q325.35 47.38 325.61 45.94Q325.86 44.50 325.86 43.34Q325.86 42.06 325.32 40.82Q324.78 39.57 322.92 39.57Q320.87 39.57 318.92 41.04Q316.97 42.51 315.27 44.82Q313.58 47.12 312.39 49.58Q311.21 52.05 310.82 53.97L307.37 70.35L301.42 70.35L306.79 44.62Q306.98 43.73 307.08 42.90Q307.18 42.06 307.18 41.74Q307.18 39.82 305.83 39.28Q304.49 38.74 302.70 38.74L302.18 38.74L302.76 36.05L314.60 36.05L312.87 44.11L313.51 44.11Q316.14 39.89 318.86 37.68Q321.58 35.47 325.16 35.47Q328.94 35.47 330.47 37.62Q332.01 39.76 332.01 42.58Q332.01 44.18 331.59 46.06Q331.18 47.95 330.86 49.62L329.19 57.17Q328.81 58.96 328.58 60.69Q328.36 62.42 328.36 63.89Q328.36 66.96 330.60 66.96Q332.46 66.96 334.70 65.49L335.85 67.34Q334.31 68.62 332.42 69.81Q330.54 70.99 328.04 70.99Z"></path></svg>